<svg xmlns="http://www.w3.org/2000/svg" width="66" height="96" fill="none" viewBox="0 0 66 96"><path fill="#EEB796" d="M32.3525 0.118215C27.6617 2.52358 31.7512 15.7531 21.5284 30.1853C17.4389 25.9763 12.6282 19.9629 11.3056 22.9692C11.1856 24.7729 2.28543 47.6243 2.28543 47.6243C2.28543 47.6243 -1.92396 56.6444 1.08275 70.4753C4.08946 84.3061 17.199 94.5288 32.3525 95.1302C47.506 95.7316 61.8183 91.5223 64.825 69.2726C67.8317 47.0229 64.3436 42.2122 62.4197 44.6176C60.4957 47.0229 53.3995 52.435 53.3995 52.435C53.3995 52.435 45.1007 -2.88809 32.3525 0.118215Z"/><path fill="#F8E5A6" d="M33.2505 26.6558C30.1733 28.2362 32.8561 36.9286 26.1498 46.4111C25.3608 45.2261 19.4435 38.9041 19.4435 41.6698C19.4435 44.4356 13.5262 57.8692 13.5262 57.8692C13.5262 57.8692 10.7648 63.7958 12.7372 72.8833C14.7097 81.9707 23.3097 88.6874 33.2505 89.0826C43.1914 89.4777 52.5804 86.712 54.5528 72.093C56.5252 57.4741 54.237 54.3132 52.9749 55.8937C51.7127 57.4741 47.0576 61.0301 47.0576 61.0301C47.0576 61.0301 41.6134 24.6805 33.2505 26.6558Z"/><path fill="#C99270" d="M0.601371 52.4431C-4.81063 95.1384 32.4726 95.1384 32.4726 95.1384C32.4726 95.1384 19.7632 92.1772 13.831 84.9156C7.89876 77.654 4.20951 62.0646 7.81754 52.4431C11.4256 42.8216 15.0336 24.1804 15.0337 23.5722C13.2297 21.7604 10.8243 21.1653 10.8243 22.3763C10.8243 22.9709 1.43985 45.8283 0.601371 52.4431Z"/></svg>