<svg width="140" height="69" viewBox="0 0 140 69" fill="none" xmlns="http://www.w3.org/2000/svg">
<g clip-path="url(#clip0_113_3289)">
<mask id="mask0_113_3289" style="mask-type:luminance" maskUnits="userSpaceOnUse" x="0" y="0" width="140" height="69">
<path d="M0.579712 4.57764e-05H139.464V68.5037H0.579712V4.57764e-05Z" fill="white"/>
</mask>
<g mask="url(#mask0_113_3289)">
<path d="M19.2521 44.5971C20.271 43.9901 21.4836 43.6877 22.8891 43.6877C24.9265 43.6877 26.5181 44.306 27.6668 45.5427C28.8145 46.7805 29.3883 48.5418 29.3883 50.8278V62.741H25.1036V52.1604C25.1036 50.6788 24.7776 49.5505 24.1252 48.7753C23.4731 47.9992 22.5527 47.611 21.3636 47.611C20.1992 47.611 19.2499 48.0048 18.5157 48.7923C17.7818 49.5798 17.4141 50.7264 17.4141 52.2304V62.741H13.1304V52.1256C13.1304 50.6677 12.8044 49.5505 12.152 48.7753C11.4986 47.9992 10.5785 47.611 9.39038 47.611C8.20249 47.611 7.24635 48.0228 6.52465 48.8454C5.80173 49.6691 5.44088 50.8088 5.44088 52.2664V62.741H1.15723V44.0757H5.44088V46.9339C5.74465 46.5063 6.07292 46.1013 6.42372 45.721C6.77453 45.3407 7.17702 44.9954 7.63415 44.6861C8.09029 44.3771 8.60474 44.1334 9.17872 43.9551C9.75148 43.7768 10.3892 43.6877 11.0908 43.6877C12.4244 43.6877 13.553 43.9901 14.4776 44.5971C15.4011 45.2031 16.1084 46.0063 16.6003 47.005C17.3501 46.0063 18.2333 45.2031 19.2521 44.5971Z" fill="black"/>
<path d="M47.4148 51.1461C47.1358 50.416 46.7458 49.774 46.2458 49.2199C45.7461 48.6659 45.152 48.2294 44.4661 47.911C43.7801 47.5928 43.018 47.4337 42.1809 47.4337C41.3436 47.4337 40.5815 47.5928 39.8946 47.911C39.2086 48.2294 38.6212 48.6602 38.1327 49.2019C37.644 49.7447 37.2719 50.3744 37.0163 51.0931C36.7608 51.8117 36.633 52.5837 36.633 53.4085C36.633 54.2332 36.7721 55.0175 37.0511 55.7599C37.3302 56.5013 37.7189 57.1445 38.2202 57.6861C38.7199 58.2287 39.3128 58.6576 39.9999 58.9758C40.6858 59.2939 41.4367 59.453 42.2503 59.453C43.1111 59.453 43.8845 59.2939 44.5704 58.9758C45.2573 58.6576 45.8446 58.2287 46.3333 57.6861C46.8208 57.1445 47.1941 56.5136 47.4496 55.7949C47.7051 55.0762 47.834 54.3042 47.834 53.4795C47.834 52.6547 47.6939 51.8774 47.4148 51.1461ZM51.3621 57.1906C50.859 58.3698 50.1686 59.4 49.2911 60.2846C48.4134 61.1681 47.3656 61.87 46.1483 62.388C44.9313 62.9059 43.6077 63.1653 42.1809 63.1653C40.7755 63.1653 39.4708 62.9116 38.265 62.405C37.059 61.8981 36.0178 61.2031 35.1401 60.3197C34.2626 59.4362 33.5779 58.4105 33.0857 57.2436C32.5948 56.0771 32.3483 54.8222 32.3483 53.4795C32.3483 52.1356 32.6004 50.8696 33.1038 49.6791C33.607 48.4888 34.2974 47.4517 35.1749 46.5683C36.0536 45.6848 37.0947 44.9841 38.3008 44.465C39.5055 43.947 40.8225 43.6876 42.2503 43.6876C43.6782 43.6876 44.9952 43.9404 46.201 44.447C47.4058 44.9548 48.4482 45.6486 49.3257 46.5333C50.2034 47.417 50.8881 48.4481 51.38 49.6261C51.871 50.8052 52.1177 52.0658 52.1177 53.4085C52.1177 54.7524 51.8653 56.0127 51.3621 57.1906Z" fill="black"/>
<path d="M69.7551 50.9159C69.4739 50.1745 69.0927 49.5439 68.6131 49.0247C68.1334 48.5068 67.5719 48.1062 66.9286 47.8231C66.2841 47.54 65.5994 47.3989 64.8742 47.3989C64.1479 47.3989 63.4575 47.54 62.802 47.8231C62.1462 48.1062 61.5734 48.5124 61.0815 49.0427C60.5906 49.5732 60.1984 50.2039 59.9059 50.9339C59.6122 51.6652 59.4664 52.4899 59.4664 53.4084C59.4664 54.3281 59.6122 55.1528 59.9059 55.8829C60.1984 56.6141 60.5906 57.2438 61.0815 57.7741C61.5734 58.3043 62.1462 58.7105 62.802 58.9939C63.4575 59.2771 64.1479 59.4181 64.8742 59.4181C65.5994 59.4181 66.2841 59.2771 66.9286 58.9939C67.5719 58.7105 68.1334 58.3112 68.6131 57.7921C69.0927 57.2741 69.4739 56.6435 69.7551 55.9009C70.0354 55.1585 70.1765 54.3281 70.1765 53.4084C70.1765 52.4899 70.0354 51.6583 69.7551 50.9159ZM73.7394 57.5449C73.2598 58.7468 72.6165 59.7657 71.8083 60.603C71.0013 61.4391 70.0756 62.0697 69.0344 62.4939C67.9933 62.9184 66.9218 63.1305 65.8223 63.1305C64.3003 63.1305 63.0362 62.7998 62.0296 62.1398C61.0232 61.4808 60.1915 60.7145 59.5372 59.8424L59.5717 62.7411H55.2883V36.9354H59.5717V47.1868C60.2489 46.197 61.0906 45.3666 62.0935 44.694C63.0977 44.0227 64.3475 43.6875 65.8426 43.6875C66.9399 43.6875 68.0023 43.8999 69.03 44.3241C70.0577 44.7471 70.9746 45.3789 71.7791 46.215C72.5851 47.0514 73.2341 48.0702 73.7238 49.2731C74.2147 50.4747 74.4602 51.8536 74.4602 53.4084C74.4602 54.9644 74.2191 56.3421 73.7394 57.5449Z" fill="black"/>
<path d="M77.911 44.0757H82.1947V62.741H77.911V44.0757Z" fill="black"/>
<path d="M87.9531 36.9356H92.2368V62.7413H87.9531V36.9356Z" fill="black"/>
<path d="M97.9951 44.0757H102.279V62.741H97.9951V44.0757Z" fill="black"/>
<path d="M112.953 56.9007C112.953 57.7289 113.152 58.3258 113.55 58.6915C113.948 59.058 114.51 59.241 115.236 59.241C116.148 59.241 117.027 59.0287 117.869 58.6045V62.1047C117.331 62.4115 116.757 62.6476 116.148 62.8123C115.54 62.9768 114.837 63.0592 114.042 63.0592C113.269 63.0592 112.552 62.9645 111.892 62.7761C111.23 62.5867 110.658 62.2796 110.174 61.8541C109.69 61.4289 109.318 60.8691 109.059 60.1718C108.799 59.4746 108.669 58.6067 108.669 57.5676V47.717H106.317V44.0757H108.669V38.9509H112.953V44.0757H117.939V47.717H112.953V56.9007Z" fill="black"/>
<path d="M132.09 63.2714C131.715 64.2372 131.329 65.0509 130.931 65.7109C130.533 66.3699 130.089 66.9058 129.597 67.319C129.106 67.7306 128.566 68.032 127.981 68.2204C127.396 68.4088 126.73 68.5035 125.981 68.5035C125.091 68.5035 124.301 68.4022 123.61 68.2002C122.92 67.997 122.247 67.7183 121.591 67.3606L123.031 64.1549C123.429 64.367 123.832 64.5374 124.243 64.6671C124.652 64.7969 125.079 64.8625 125.524 64.8625C126.132 64.8625 126.635 64.7091 127.033 64.4032C127.431 64.0974 127.807 63.5321 128.157 62.7096L120.433 44.0758H124.962L130.229 57.9333L135.039 44.0758H139.464L132.09 63.2714Z" fill="black"/>
<path d="M98.0665 36.9526H102.35V40.5996H98.0665V36.9526Z" fill="black"/>
<path d="M77.9032 36.9526H82.1868V40.5996H77.9032V36.9526Z" fill="black"/>
<path d="M72.1949 20.2762C71.9066 19.5565 71.522 18.9347 71.0391 18.4118C70.5553 17.889 69.9919 17.4884 69.3488 17.2093C68.7045 16.9301 68.0372 16.791 67.3478 16.791C66.634 16.791 65.961 16.9256 65.3292 17.1915C64.696 17.4596 64.1382 17.849 63.6553 18.3596C63.1725 18.8713 62.7923 19.4919 62.5172 20.2239C62.2408 20.9559 62.1029 21.7868 62.1029 22.7156C62.1029 23.6223 62.2408 24.4408 62.5172 25.1729C62.7923 25.9049 63.1725 26.5266 63.6553 27.0372C64.1382 27.5489 64.696 27.9426 65.3292 28.2218C65.961 28.5012 66.634 28.64 67.3478 28.64C68.0372 28.64 68.7045 28.5012 69.3488 28.2218C69.9919 27.9426 70.5553 27.5423 71.0391 27.0194C71.522 26.4965 71.9066 25.8758 72.1949 25.1551C72.4823 24.4354 72.6258 23.6223 72.6258 22.7156C72.6258 21.8102 72.4823 20.9971 72.1949 20.2762ZM72.5573 31.9161V28.8492C71.889 29.8024 71.0546 30.6156 70.0526 31.2887C69.0514 31.9627 67.814 32.2999 66.3412 32.2999C65.2584 32.2999 64.2109 32.0907 63.1977 31.6724C62.1845 31.2541 61.2874 30.6324 60.5039 29.8081C59.7217 28.9826 59.0887 27.9783 58.6059 26.7935C58.1218 25.6077 57.88 24.2495 57.88 22.7156C57.88 21.1828 58.1164 19.8233 58.5882 18.6388C59.0601 17.4529 59.6874 16.4484 60.4699 15.6241C61.2531 14.7999 62.157 14.1769 63.1813 13.7598C64.2055 13.3415 65.2584 13.1324 66.3412 13.1324C67.8373 13.1324 69.0803 13.4572 70.0703 14.1081C71.0602 14.7587 71.889 15.5141 72.5573 16.3729V6.47594H76.7802V31.9161H72.5573Z" fill="black"/>
<path d="M93.4056 21.4264C93.336 20.7523 93.1856 20.1194 92.9558 19.5275C92.7251 18.9346 92.4134 18.4241 92.0212 17.9935C91.629 17.5643 91.1616 17.2215 90.619 16.9657C90.0766 16.71 89.46 16.582 88.7672 16.582C87.4745 16.582 86.4071 17.0303 85.5654 17.9234C84.7222 18.8189 84.2094 19.9858 84.025 21.4264H93.4056ZM85.8591 27.6823C86.8059 28.4833 87.9595 28.8836 89.3209 28.8836C90.3593 28.8836 91.2598 28.6979 92.0212 28.3265C92.7824 27.9548 93.5327 27.4087 94.2709 26.6891L96.7292 28.8836C95.8519 29.9294 94.8076 30.7659 93.5957 31.3934C92.3848 32.0206 90.9362 32.3343 89.2523 32.3343C87.9363 32.3343 86.7077 32.102 85.5654 31.6368C84.4228 31.1731 83.4307 30.5223 82.5887 29.6857C81.7457 28.8493 81.0828 27.8448 80.5978 26.6713C80.1137 25.4988 79.8707 24.1916 79.8707 22.7501C79.8707 21.4264 80.0904 20.1838 80.5292 19.0214C80.9667 17.86 81.5843 16.8434 82.3809 15.9723C83.1764 15.1014 84.1168 14.4106 85.2018 13.8988C86.2868 13.3883 87.4867 13.1325 88.8015 13.1325C90.2554 13.1325 91.5305 13.3994 92.6266 13.9333C93.7226 14.4685 94.6342 15.1882 95.3612 16.0949C96.0883 17.0002 96.6363 18.0581 97.0053 19.2661C97.3745 20.4741 97.5599 21.7401 97.5599 23.0638C97.5599 23.2507 97.5533 23.4364 97.5423 23.6222C97.5303 23.8079 97.5136 24.0049 97.4903 24.2141H84.0593C84.3133 25.7245 84.9135 26.8804 85.8591 27.6823Z" fill="black"/>
<path d="M113.182 21.4264C113.113 20.7523 112.962 20.1194 112.732 19.5275C112.502 18.9346 112.19 18.4241 111.798 17.9935C111.406 17.5643 110.938 17.2215 110.396 16.9657C109.853 16.71 109.237 16.582 108.544 16.582C107.251 16.582 106.184 17.0303 105.342 17.9234C104.499 18.8189 103.986 19.9858 103.802 21.4264H113.182ZM105.636 27.6823C106.582 28.4833 107.736 28.8836 109.097 28.8836C110.136 28.8836 111.036 28.6979 111.798 28.3265C112.559 27.9548 113.309 27.4087 114.047 26.6891L116.506 28.8836C115.628 29.9294 114.584 30.7659 113.372 31.3934C112.161 32.0206 110.713 32.3343 109.029 32.3343C107.713 32.3343 106.484 32.102 105.342 31.6368C104.199 31.1731 103.207 30.5223 102.365 29.6857C101.522 28.8493 100.859 27.8448 100.374 26.6713C99.8902 25.4988 99.6472 24.1916 99.6472 22.7501C99.6472 21.4264 99.867 20.1838 100.306 19.0214C100.743 17.86 101.361 16.8434 102.157 15.9723C102.953 15.1014 103.893 14.4106 104.978 13.8988C106.063 13.3883 107.263 13.1325 108.578 13.1325C110.032 13.1325 111.307 13.3994 112.403 13.9333C113.499 14.4685 114.411 15.1882 115.138 16.0949C115.865 17.0002 116.413 18.0581 116.782 19.2661C117.151 20.4741 117.336 21.7401 117.336 23.0638C117.336 23.2507 117.33 23.4364 117.319 23.6222C117.307 23.8079 117.29 24.0049 117.267 24.2141H103.836C104.09 25.7245 104.69 26.8804 105.636 27.6823Z" fill="black"/>
<path d="M134.689 20.2584C134.412 19.5276 134.036 18.9058 133.563 18.3941C133.09 17.8835 132.537 17.4887 131.902 17.2092C131.267 16.93 130.592 16.7912 129.877 16.7912C129.161 16.7912 128.48 16.93 127.834 17.2092C127.188 17.4887 126.623 17.889 126.138 18.4118C125.654 18.9347 125.267 19.5565 124.979 20.2761C124.69 20.997 124.546 21.8102 124.546 22.7156C124.546 23.6222 124.69 24.4354 124.979 25.1551C125.267 25.876 125.654 26.4965 126.138 27.0194C126.623 27.5422 127.188 27.9428 127.834 28.222C128.48 28.5012 129.161 28.64 129.877 28.64C130.592 28.64 131.267 28.5012 131.902 28.222C132.537 27.9428 133.09 27.5489 133.563 27.0371C134.036 26.5266 134.412 25.9048 134.689 25.1728C134.965 24.4408 135.104 23.6222 135.104 22.7156C135.104 21.8102 134.965 20.9904 134.689 20.2584ZM138.617 26.7937C138.144 27.9783 137.51 28.9828 136.713 29.8081C135.917 30.6323 135.005 31.2541 133.978 31.6724C132.952 32.0907 131.896 32.2998 130.812 32.2998C129.311 32.2998 128.065 31.974 127.073 31.3232C126.081 30.6735 125.261 29.9183 124.615 29.0583L124.65 37.4925H120.427V13.5151H124.65V16.582C125.317 15.6063 126.147 14.7878 127.136 14.1248C128.126 13.4628 129.358 13.1326 130.832 13.1326C131.913 13.1326 132.961 13.3415 133.974 13.7598C134.987 14.1771 135.891 14.7999 136.684 15.6241C137.479 16.4486 138.119 17.4529 138.601 18.6387C139.085 19.8236 139.327 21.1828 139.327 22.7156C139.327 24.2497 139.09 25.6079 138.617 26.7937Z" fill="black"/>
<path d="M42.2972 4.45867L35.4491 11.4858C35.2269 11.7127 34.9342 11.8274 34.6414 11.8274C34.3553 11.8274 34.0689 11.7194 33.8492 11.5013C33.4028 11.0608 33.3962 10.3402 33.8338 9.89081L40.258 3.29825C36.1872 1.21813 31.2671 0 25.9659 0C11.9451 0 0.579712 8.50842 0.579712 19.004C0.579712 25.0613 4.36999 30.4525 10.2668 33.9325L17.437 26.682C17.878 26.237 18.596 26.2338 19.0369 26.6775C19.4801 27.1215 19.4823 27.8434 19.0414 28.2883L12.3601 35.0444C13.6538 35.661 15.0267 36.1917 16.4659 36.627C16.5117 36.5511 16.5465 36.4699 16.6117 36.4041L29.2297 23.6008H23.0511C22.4257 23.6008 21.9196 23.0912 21.9196 22.4615C21.9196 22.2864 21.9661 22.1251 22.0362 21.9769C22.0913 21.8344 22.1731 21.7002 22.2875 21.585L27.8727 15.9588C28.0849 15.7452 28.3723 15.6251 28.6728 15.6251H37.0246L42.4861 10.0065C42.9248 9.5581 43.6406 9.54922 44.086 9.98847C44.5323 10.429 44.5402 11.1499 44.1036 11.5992L38.3097 17.5604C38.0963 17.7797 37.8046 17.9032 37.5008 17.9032H29.1412L25.7468 21.3226H31.9465C32.4028 21.3226 32.8149 21.5996 32.9905 22.0233C33.1664 22.4482 33.0714 22.9378 32.7497 23.2636L18.949 37.2666C21.1783 37.7458 23.5305 38.0077 25.9659 38.0077C39.9858 38.0077 51.3517 29.4995 51.3517 19.004C51.3517 13.1656 47.8317 7.94461 42.2972 4.45867Z" fill="black"/>
</g>
</g>
<defs>
<clipPath id="clip0_113_3289">
<rect width="138.884" height="68.5036" fill="white" transform="translate(0.579712)"/>
</clipPath>
</defs>
</svg>
